<?xml version="1.0"?>
<svg xmlns="http://www.w3.org/2000/svg" id="Layer_1" data-name="Layer 1" viewBox="0 0 128 128" width="512" height="512"><title>HAND GESTURE</title><path d="M83.983,66.233l-5.8-1.98a1.247,1.247,0,0,0-.756-.9L71.6,61A1.25,1.25,0,0,0,70.75,59.9l-5.765-1.951v-10.3a4.557,4.557,0,0,0-9.115,0V62.894L49.5,67.361a1.252,1.252,0,0,0-.532,1.023v10.8a8.59,8.59,0,0,0,5.1,7.707c2.52.938,2.622,2.807,2.593,6.3l-.005,2.7V95.9a1.25,1.25,0,0,0,2.5-.007l0-2.675c.028-3.315.061-7.074-4.22-8.668a6.118,6.118,0,0,1-3.472-5.363V69.034l4.4-3.086v4.614a1.25,1.25,0,1,0,2.5,0V47.652a2.057,2.057,0,0,1,4.115,0V68.385a1.25,1.25,0,1,0,2.5,0v-7.8l4.121,1.4c0,.011.006.02.007.03s-.014.045-.014.07V71.57a1.25,1.25,0,1,0,2.5,0V63.7l4.132,1.663c0,.008.006.016.008.024a1.15,1.15,0,0,0-.025.124v8.72a1.25,1.25,0,1,0,2.5,0V66.9l4.115,1.406V81.266a4.629,4.629,0,0,1-2.008,3.813,9.224,9.224,0,0,0-3.866,7.663v3.148a1.25,1.25,0,1,0,2.5,0V92.742a6.725,6.725,0,0,1,2.783-5.6,7.131,7.131,0,0,0,3.091-5.874V67.416A1.249,1.249,0,0,0,83.983,66.233Z"/><path d="M60.427,38.767a1.25,1.25,0,0,0,1.25-1.25V32.107a1.25,1.25,0,1,0-2.5,0v5.409A1.25,1.25,0,0,0,60.427,38.767Z" fill="#0095ff"/><path d="M67.806,41.918a1.245,1.245,0,0,0,.884-.366l3.824-3.824a1.25,1.25,0,1,0-1.768-1.767l-3.824,3.824a1.25,1.25,0,0,0,.884,2.134Z" fill="#0095ff"/><path d="M69.544,48.114a1.25,1.25,0,0,0,1.25,1.25H76.2a1.25,1.25,0,0,0,0-2.5H70.794A1.25,1.25,0,0,0,69.544,48.114Z" fill="#0095ff"/><path d="M51.08,47.884a1.25,1.25,0,0,0-1.25-1.25H44.421a1.25,1.25,0,0,0,0,2.5H49.83A1.25,1.25,0,0,0,51.08,47.884Z" fill="#0095ff"/><path d="M52.1,41.389a1.25,1.25,0,0,0,1.767-1.768L50.04,35.8a1.25,1.25,0,0,0-1.768,1.768Z" fill="#0095ff"/></svg>
